<?xml version="1.0" standalone="no"?>
<!DOCTYPE svg PUBLIC "-//W3C//DTD SVG 20010904//EN"
 "http://www.w3.org/TR/2001/REC-SVG-20010904/DTD/svg10.dtd">
<svg version="1.0" xmlns="http://www.w3.org/2000/svg"
 width="524.000000pt" height="524.000000pt" viewBox="0 0 524.000000 524.000000"
 preserveAspectRatio="xMidYMid meet">
<metadata>
Created by potrace 1.14, written by Peter Selinger 2001-2017
</metadata>
<g transform="translate(0.000000,524.000000) scale(0.100000,-0.100000)"
fill="#000000" stroke="none">
<path d="M2497 5234 c-1 -1 -42 -5 -91 -8 -174 -14 -412 -63 -614 -127 -643
-206 -1212 -700 -1511 -1313 -54 -109 -117 -257 -127 -296 -2 -8 -19 -64 -38
-125 -33 -105 -68 -263 -80 -352 -3 -24 -8 -60 -11 -80 -17 -125 -22 -422 -11
-533 4 -30 9 -77 12 -105 34 -320 164 -703 339 -1000 299 -507 778 -911 1323
-1116 106 -40 310 -98 417 -119 33 -7 65 -13 70 -15 6 -1 33 -5 60 -9 28 -4
61 -10 75 -12 105 -17 375 -22 520 -10 135 12 197 21 325 47 285 59 562 171
829 333 299 182 659 507 721 651 17 38 9 78 -20 105 -29 28 -840 342 -882 342
-24 0 -49 -14 -100 -55 -271 -219 -596 -363 -890 -394 -128 -13 -340 -8 -446
13 -238 45 -462 135 -647 259 -110 74 -153 109 -228 185 -305 307 -453 671
-456 1120 -4 472 195 910 549 1207 204 171 495 307 757 353 35 6 74 14 88 16
46 10 335 12 400 3 117 -16 132 -18 150 -24 10 -3 28 -8 39 -10 12 -3 30 -7
41 -10 46 -10 150 -50 239 -91 119 -56 243 -134 373 -235 78 -61 109 -79 134
-79 27 0 104 26 219 75 17 6 80 31 140 55 61 23 128 50 150 59 22 10 109 44
193 77 161 62 197 85 204 134 11 76 -102 215 -337 414 -253 214 -435 333 -688
447 -130 58 -384 142 -500 165 -12 2 -47 9 -77 15 -30 5 -71 12 -90 14 -19 3
-48 7 -65 10 -84 13 -446 29 -458 19z"/>
<path d="M2505 3509 c-115 -18 -195 -43 -290 -92 -219 -114 -378 -309 -451
-554 -36 -120 -42 -299 -14 -425 82 -372 380 -654 745 -705 84 -12 256 -6 329
11 253 60 471 225 593 447 25 48 56 69 97 69 13 0 178 -52 367 -116 1111 -375
1113 -376 1153 -371 25 4 46 14 57 28 14 20 45 102 54 147 2 9 12 55 23 102
12 47 24 105 27 130 3 25 8 52 10 60 4 15 13 88 21 165 9 80 10 352 3 440 -11
140 -24 218 -64 395 -9 39 -47 158 -58 179 -14 28 -44 49 -77 54 -22 3 -391
-118 -1285 -422 -116 -39 -222 -71 -237 -71 -26 0 -88 43 -88 61 0 22 -101
158 -161 217 -90 89 -174 143 -314 203 -99 43 -319 67 -440 48z"/>
</g>
</svg>
