<svg width="141" height="141" viewBox="0 0 141 141" fill="none" xmlns="http://www.w3.org/2000/svg">
<circle cx="70.5" cy="70.5" r="70.5" fill="white"/>
<path d="M68.7767 53.8015L49.4844 73.0938H37.5391C32.2708 73.0938 28 77.3645 28 82.6328V105.406C35.8514 114.793 41.7371 120.051 55.5 105.406V84.1029L66.7489 67.397C69.0513 63.9777 70.2812 59.9489 70.2812 55.8267V54.4249C70.2812 53.6396 69.3318 53.2463 68.7767 53.8015Z" fill="#3DC3FA"/>
<path d="M103.023 73.0938H91.0781L71.7858 53.8015C71.2307 53.2462 70.2812 53.6394 70.2812 54.4247V55.8265C70.2812 59.9488 71.5112 63.9773 73.8136 67.3968L85.0625 84.1029V105.406C92.145 112.878 96.371 112.688 104.312 105.406V103.161L105.301 105.406C108.031 111.924 109.614 112.371 112.562 105.406V82.6328C112.562 77.3645 108.292 73.0938 103.023 73.0938Z" fill="#5850FA"/>
<path d="M45.8751 56.5938C41.9885 56.5938 38.8379 59.7444 38.8379 63.631V66.0567C38.8379 69.9431 41.9885 73.0938 45.8751 73.0938C49.7616 73.0938 52.9124 69.9431 52.9124 66.0565V63.6308C52.9124 59.7444 49.7618 56.5938 45.8751 56.5938Z" fill="#FCC69D"/>
<path d="M94.6876 56.5938C98.5743 56.5938 101.725 59.7444 101.725 63.631V66.0567C101.725 69.9431 98.5743 73.0938 94.6876 73.0938C90.801 73.0938 87.6504 69.9431 87.6504 66.0565V63.6308C87.6504 59.7444 90.801 56.5938 94.6876 56.5938Z" fill="#FCC69D"/>
<path d="M70.2793 39.6629C71.2284 39.6629 71.9981 38.8934 71.9981 37.9441V27.7187C71.9981 26.7695 71.2284 26 70.2793 26C69.3302 26 68.5605 26.7695 68.5605 27.7187V37.9441C68.5605 38.8934 69.3302 39.6629 70.2793 39.6629Z" fill="#93A9C3"/>
<path d="M58.1104 43.1065C58.4461 43.4418 58.8858 43.6094 59.3252 43.6094C59.7654 43.6094 60.2054 43.4413 60.5411 43.1055C61.2119 42.434 61.2114 41.3458 60.5401 40.6748L56.4278 36.5662C55.7559 35.8952 54.6679 35.8957 53.9969 36.5672C53.3261 37.2387 53.3266 38.3268 53.998 38.9978L58.1104 43.1065Z" fill="#93A9C3"/>
<path d="M80.9776 43.8804C81.4178 43.8804 81.8578 43.7123 82.1934 43.3765L86.5654 39.0011C87.2362 38.3295 87.2357 37.2414 86.5644 36.5704C85.8929 35.8992 84.8046 35.8999 84.1336 36.5713L79.7616 40.9467C79.0908 41.6182 79.0913 42.7063 79.7626 43.3773C80.0983 43.7128 80.5381 43.8804 80.9776 43.8804Z" fill="#93A9C3"/>
</svg>
