<svg width="141" height="141" viewBox="0 0 141 141" fill="none" xmlns="http://www.w3.org/2000/svg">
<circle cx="70.5" cy="70.5" r="70.5" fill="white"/>
<g clip-path="url(#clip0)">
<path d="M61.042 101.489L77.6405 97.0419L80.3775 90.795L74.8838 86.7536L58.2852 91.2011C53.7466 92.4173 49.0653 89.7145 47.8491 85.1758C46.633 80.6372 49.3357 75.9559 53.8744 74.7398L70.4729 70.2922L73.2099 64.0453L67.7162 60.0038L51.1176 64.4514C40.9065 67.1875 34.8247 77.7214 37.5608 87.9326C40.2969 98.1438 50.8308 104.226 61.042 101.489Z" fill="#312A7D"/>
<path d="M73.2294 80.5805L75.9663 74.3336L70.4726 70.2921C65.934 71.5083 61.2527 68.8055 60.0365 64.2669C58.8204 59.7282 61.5231 55.0469 66.0618 53.8308L68.7988 47.5839L63.3051 43.5424C53.0939 46.2785 47.0121 56.8124 49.7482 67.0236C52.4843 77.2348 63.0182 83.3166 73.2294 80.5805Z" fill="#3DC3FA"/>
<path d="M87.0714 65.8446L70.4728 70.2922L73.2296 80.5805L89.8281 76.1329C100.039 73.3969 106.121 62.8629 103.385 52.6517C100.649 42.4405 90.115 36.3588 79.9038 39.0949L63.3053 43.5424L66.062 53.8308L82.6606 49.3832C87.1992 48.1671 91.8805 50.8698 93.0967 55.4085C94.3128 59.9472 91.61 64.6285 87.0714 65.8446Z" fill="#3DC3FA"/>
<path d="M74.8834 86.7535L77.6401 97.0419C87.8513 94.3058 93.9331 83.7719 91.197 73.5607C88.4609 63.3495 77.927 57.2677 67.7158 60.0038L70.4726 70.2922C75.0112 69.076 79.6925 71.7788 80.9087 76.3174C82.1248 80.8561 79.422 85.5374 74.8834 86.7535Z" fill="#312A7D"/>
</g>
<defs>
<clipPath id="clip0">
<rect width="72.7128" height="72.7128" fill="white" transform="translate(115 96) rotate(165)"/>
</clipPath>
</defs>
</svg>
