<svg width="141" height="141" viewBox="0 0 141 141" fill="none" xmlns="http://www.w3.org/2000/svg">
<circle cx="70.5" cy="70.5" r="70.5" fill="white"/>
<path d="M90.6576 44.1557C89.9707 42.9826 90.3648 41.4749 91.5378 40.788L95.4072 38.5233C96.5802 37.8364 98.088 38.2305 98.7749 39.4041C99.4612 40.5772 99.067 42.0849 97.894 42.7718L94.0252 45.0365C92.8522 45.7234 91.3445 45.3293 90.6576 44.1557Z" fill="#EEBF00"/>
<path d="M45.9741 45.0365L42.1047 42.7718C40.9317 42.0848 40.5376 40.5771 41.2245 39.4035C41.9114 38.2305 43.4197 37.8363 44.5921 38.5232L48.4609 40.788C49.6339 41.4749 50.0281 42.9826 49.3418 44.1556C48.6555 45.3286 47.1478 45.7234 45.9741 45.0365Z" fill="#FFD422"/>
<path d="M95.4072 60.8019L91.5378 58.5372C90.3648 57.8503 89.9707 56.3426 90.6576 55.1696C91.3445 53.9959 92.8516 53.6024 94.0252 54.2887L97.894 56.5534C99.067 57.2403 99.4612 58.748 98.7749 59.9211C98.0886 61.0928 96.5821 61.4895 95.4072 60.8019Z" fill="#FFD422"/>
<path d="M41.2245 59.921C40.5376 58.748 40.9317 57.2403 42.1047 56.5534L45.9741 54.2887C47.1465 53.6017 48.6549 53.9959 49.3418 55.1695C50.0281 56.3425 49.6339 57.8503 48.4609 58.5372L44.5921 60.8019C43.4185 61.4888 41.9108 61.0947 41.2245 59.921Z" fill="#EEBF00"/>
<path d="M89.6615 49.6623C89.6615 60.5041 80.841 69.3246 69.9992 69.3246C59.1574 69.3246 50.3369 60.5041 50.3369 49.6623C50.3369 38.8205 59.1574 30 69.9992 30C80.841 30 89.6615 38.8205 89.6615 49.6623Z" fill="#FFD422"/>
<path d="M84.7385 49.6623C84.7385 57.7896 78.1271 64.4017 69.9991 64.4017C61.8712 64.4017 55.2598 57.7896 55.2598 49.6623C55.2598 41.5362 61.8712 34.9229 69.9991 34.9229C78.1271 34.9229 84.7385 41.5362 84.7385 49.6623Z" fill="#FFF5CC"/>
<path d="M74.3199 48.6978C74.74 48.0222 75 47.1988 75 46.3333C75 44.7711 74.1801 43.42 73 42.7022V41.0556C73 40.4644 72.5601 40 72 40C71.4399 40 71 40.4644 71 41.0556V42.1111H69V41.0556C69 40.4644 68.5601 40 68 40C67.4399 40 67 40.4644 67 41.0556V42.1111H66C65.4399 42.1111 65 42.5755 65 43.1667V55.8333C65 56.4244 65.4399 56.8889 66 56.8889H67V57.9444C67 58.5355 67.4399 59 68 59C68.5601 59 69 58.5355 69 57.9444V56.8889H71V57.9444C71 58.5355 71.4399 59 72 59C72.5601 59 73 58.5355 73 57.9444V56.8889C75.1999 56.8889 77 54.9888 77 52.6667C77 50.83 75.88 49.2678 74.3199 48.6978ZM67 44.2222H71C72.1 44.2222 73 45.1722 73 46.3333C73 47.4944 72.1 48.4444 71 48.4444H67V44.2222ZM73 54.7778H67V50.5556H73C74.1 50.5556 75 51.5056 75 52.6667C75 53.8278 74.1 54.7778 73 54.7778Z" fill="#FFD422"/>
<path fill-rule="evenodd" clip-rule="evenodd" d="M66.5 41.0556C66.5 40.214 67.1387 39.5 68 39.5C68.8613 39.5 69.5 40.214 69.5 41.0556V41.6111H70.5V41.0556C70.5 40.214 71.1387 39.5 72 39.5C72.8613 39.5 73.5 40.214 73.5 41.0556V42.4319C74.696 43.2693 75.5 44.7013 75.5 46.3333C75.5 47.0923 75.3209 47.8199 75.0176 48.4608C76.4976 49.2358 77.5 50.8362 77.5 52.6667C77.5 55.0652 75.7624 57.0962 73.5 57.3599V57.9444C73.5 58.7858 72.8614 59.5 72 59.5C71.1386 59.5 70.5 58.7858 70.5 57.9444V57.3889H69.5V57.9444C69.5 58.7858 68.8614 59.5 68 59.5C67.1386 59.5 66.5 58.7858 66.5 57.9444V57.3889H66C65.1386 57.3889 64.5 56.6747 64.5 55.8333V43.1667C64.5 42.3252 65.1387 41.6111 66 41.6111H66.5V41.0556ZM68 40.5C67.7412 40.5 67.5 40.7147 67.5 41.0556V42.6111H66C65.7412 42.6111 65.5 42.8258 65.5 43.1667V55.8333C65.5 56.1741 65.7412 56.3889 66 56.3889H67.5V57.9444C67.5 58.2852 67.7412 58.5 68 58.5C68.2588 58.5 68.5 58.2852 68.5 57.9444V56.3889H71.5V57.9444C71.5 58.2852 71.7412 58.5 72 58.5C72.2588 58.5 72.5 58.2852 72.5 57.9444V56.3889H73C74.8987 56.3889 76.5 54.7385 76.5 52.6667C76.5 51.0332 75.5049 49.6631 74.1483 49.1674L73.5704 48.9563L73.8953 48.4338C74.2693 47.8323 74.5 47.0996 74.5 46.3333C74.5 44.9479 73.773 43.7576 72.7401 43.1293L72.5 42.9832V41.0556C72.5 40.7147 72.2588 40.5 72 40.5C71.7412 40.5 71.5 40.7147 71.5 41.0556V42.6111H68.5V41.0556C68.5 40.7147 68.2588 40.5 68 40.5ZM66.5 43.7222H71C72.4013 43.7222 73.5 44.9219 73.5 46.3333C73.5 47.7448 72.4013 48.9444 71 48.9444H66.5V43.7222ZM67.5 44.7222V47.9444H71C71.7987 47.9444 72.5 47.2441 72.5 46.3333C72.5 45.4225 71.7987 44.7222 71 44.7222H67.5ZM66.5 50.0556H73C74.4013 50.0556 75.5 51.2552 75.5 52.6667C75.5 54.0781 74.4013 55.2778 73 55.2778H66.5V50.0556ZM67.5 51.0556V54.2778H73C73.7987 54.2778 74.5 53.5775 74.5 52.6667C74.5 51.7559 73.7987 51.0556 73 51.0556H67.5Z" fill="#FFD422"/>
<path d="M110.977 67.8651L109.187 77.1053C108.657 79.8474 107.155 82.3054 104.958 84.0302C98.2152 89.3222 89.7563 95.8599 88.5826 96.7889C87.2995 97.8049 86.9304 99.362 86.8272 101.042V109.503C86.8272 110.863 85.7248 111.964 84.3654 111.964H75.0131C73.6656 111.964 72.5683 110.881 72.5514 109.533L72.3174 90.5841C72.3993 86.9218 74.1091 83.4853 76.9813 81.2112C78.4415 80.0544 79.6082 79.1285 80.5848 78.354C83.412 76.1156 84.6294 75.1509 86.6877 73.5212C88.0089 72.4727 89.9496 72.7317 90.9474 74.1105C91.8727 75.3924 91.635 77.1741 90.4044 78.167L86.8616 81.4984C85.606 82.6764 85.5797 84.6552 86.7928 85.8682C87.9214 86.9968 89.7313 87.0625 90.9393 86.0159L101.42 76.9314C102.008 76.4753 102.421 75.8303 102.589 75.1052L104.434 67.1068C104.643 65.3001 106.277 64.0057 108.084 64.2152C109.34 64.2152 111.23 65.6923 110.977 67.8651Z" fill="#FFBD86"/>
<path d="M67.6814 90.5841L67.4474 109.533C67.4305 110.881 66.3338 111.964 64.9863 111.964H55.6334C54.2739 111.964 53.1722 110.863 53.1722 109.503V101.042C53.0684 99.362 52.6993 97.8049 51.4162 96.7889C50.2431 95.8599 41.7836 89.3222 35.0408 84.0302C32.8437 82.3054 31.3422 79.8474 30.8123 77.1053L29.0218 67.8651C28.8129 66.0289 30.1298 64.4217 31.9146 64.2152C33.7214 64.0057 35.3561 65.3001 35.5644 67.1068L37.4106 75.1052C37.5777 75.8303 37.9912 76.4753 38.5786 76.9314L49.199 86.0453C50.3858 87.0644 52.1544 87.0087 53.2755 85.9177C54.5142 84.7115 54.4898 82.7139 53.2229 81.5378L49.5944 78.167C48.3626 77.1723 48.1286 75.3893 49.0514 74.1105C50.0442 72.7373 51.9823 72.4677 53.3118 73.5212C56.4523 76.0093 57.0348 76.4703 59.088 78.0963C59.9952 78.8151 61.1882 79.7623 63.0181 81.2112C65.8897 83.4853 67.5994 86.9218 67.6814 90.5841Z" fill="#FED2A4"/>
</svg>
